<svg width="238" height="191" viewBox="0 0 238 191" fill="none" xmlns="http://www.w3.org/2000/svg">
<rect x="128" width="57" height="189" fill="#FF0000"/>
<path d="M182 74C189.354 74 196.636 75.4873 203.43 78.3769C210.225 81.2666 216.398 85.502 221.598 90.8414C226.798 96.1807 230.923 102.519 233.737 109.496C236.552 116.472 238 123.949 238 131.5C238 139.051 236.552 146.528 233.737 153.504C230.923 160.481 226.798 166.819 221.598 172.159C216.398 177.498 210.225 181.733 203.43 184.623C196.636 187.513 189.354 189 182 189L182 131.5L182 74Z" fill="black"/>
<path d="M-4.89568e-06 135C-5.53858e-06 127.646 1.44848 120.364 4.26274 113.57C7.077 106.776 11.2019 100.602 16.402 95.402C21.6021 90.2019 27.7755 86.077 34.5697 83.2628C41.364 80.4485 48.646 79 56 79C63.354 79 70.636 80.4485 77.4303 83.2628C84.2245 86.077 90.3979 90.2019 95.598 95.402C100.798 100.602 104.923 106.775 107.737 113.57C110.552 120.364 112 127.646 112 135L56 135L-4.89568e-06 135Z" fill="black"/>
<rect x="112" y="135" width="54" height="112" transform="rotate(90 112 135)" fill="#FF0000"/>
<circle cx="56" cy="162" r="27" fill="black"/>
</svg>
