<svg width="112" height="247" viewBox="0 0 112 247" fill="none" xmlns="http://www.w3.org/2000/svg">
<circle cx="85" cy="27" r="27" fill="black"/>
<rect x="58" y="75" width="54" height="116" fill="#FF0000"/>
<path d="M112 191C112 198.354 110.552 205.636 107.737 212.43C104.923 219.225 100.798 225.398 95.598 230.598C90.3979 235.798 84.2245 239.923 77.4303 242.737C70.636 245.552 63.354 247 56 247C48.646 247 41.364 245.552 34.5697 242.737C27.7755 239.923 21.6021 235.798 16.402 230.598C11.2019 225.398 7.07701 219.225 4.26274 212.43C1.44848 205.636 -6.42909e-07 198.354 0 191L56 191H112Z" fill="black"/>
</svg>
