<svg width="364" height="247" viewBox="0 0 364 247" fill="none" xmlns="http://www.w3.org/2000/svg">
<rect x="254" y="2" width="54" height="189" fill="#FF0000"/>
<path d="M308 79C315.354 79 322.636 80.4485 329.43 83.2627C336.225 86.077 342.398 90.2019 347.598 95.402C352.798 100.602 356.923 106.775 359.737 113.57C362.552 120.364 364 127.646 364 135C364 142.354 362.552 149.636 359.737 156.43C356.923 163.225 352.798 169.398 347.598 174.598C342.398 179.798 336.225 183.923 329.43 186.737C322.636 189.552 315.354 191 308 191L308 135L308 79Z" fill="black"/>
<path d="M127 137C127 129.646 128.448 122.364 131.263 115.57C134.077 108.776 138.202 102.602 143.402 97.402C148.602 92.2019 154.775 88.077 161.57 85.2628C168.364 82.4485 175.646 81 183 81C190.354 81 197.636 82.4485 204.43 85.2628C211.224 88.077 217.398 92.2019 222.598 97.402C227.798 102.602 231.923 108.775 234.737 115.57C237.552 122.364 239 129.646 239 137L183 137L127 137Z" fill="black"/>
<rect x="239" y="137" width="54" height="112" transform="rotate(90 239 137)" fill="#FF0000"/>
<circle cx="183" cy="164" r="27" fill="black"/>
<circle cx="85" cy="27" r="27" fill="black"/>
<rect x="58" y="75" width="54" height="116" fill="#FF0000"/>
<path d="M112 191C112 198.354 110.552 205.636 107.737 212.43C104.923 219.225 100.798 225.398 95.598 230.598C90.3979 235.798 84.2245 239.923 77.4303 242.737C70.636 245.552 63.354 247 56 247C48.646 247 41.364 245.552 34.5697 242.737C27.7755 239.923 21.6021 235.798 16.402 230.598C11.2019 225.398 7.07701 219.225 4.26274 212.43C1.44848 205.636 -6.42909e-07 198.354 0 191L56 191H112Z" fill="black"/>
</svg>
