<svg width="309" height="89" viewBox="0 0 309 89" fill="none" xmlns="http://www.w3.org/2000/svg">
<rect x="137" y="58" width="31" height="135" transform="rotate(90 137 58)" fill="#FF0000"/>
<path d="M3.48 40.2H10.2V29.96H3.96V25.16H15.24V40.2H21V45H3.48V40.2ZM16.48 19.28C16.48 19.8133 16.3733 20.32 16.16 20.8C15.9733 21.2533 15.7067 21.6533 15.36 22C15.0133 22.32 14.6 22.5867 14.12 22.8C13.6667 22.9867 13.1867 23.08 12.68 23.08C12.1467 23.08 11.6533 22.9867 11.2 22.8C10.7467 22.5867 10.3467 22.32 10 22C9.65333 21.6533 9.37333 21.2533 9.16 20.8C8.97333 20.32 8.88 19.8133 8.88 19.28C8.88 18.7467 8.97333 18.2533 9.16 17.8C9.37333 17.32 9.65333 16.92 10 16.6C10.3467 16.2533 10.7467 15.9867 11.2 15.8C11.6533 15.5867 12.1467 15.48 12.68 15.48C13.1867 15.48 13.6667 15.5867 14.12 15.8C14.6 15.9867 15.0133 16.2533 15.36 16.6C15.7067 16.92 15.9733 17.32 16.16 17.8C16.3733 18.2533 16.48 18.7467 16.48 19.28ZM32.6522 45H27.6122V25.16H32.6522V28.12H33.3722C33.8255 27 34.5589 26.1333 35.5722 25.52C36.5855 24.9067 37.7722 24.6 39.1322 24.6C40.0922 24.6 40.9855 24.76 41.8122 25.08C42.6655 25.3733 43.4122 25.84 44.0522 26.48C44.6922 27.12 45.1855 27.9333 45.5322 28.92C45.9055 29.9067 46.0922 31.08 46.0922 32.44V45H41.0522V33.72C41.0522 32.3067 40.7055 31.2 40.0122 30.4C39.3455 29.5733 38.3722 29.16 37.0922 29.16C35.5989 29.16 34.4789 29.6667 33.7322 30.68C33.0122 31.6667 32.6522 33 32.6522 34.68V45ZM51.5444 25.16H57.4244V17H62.4644V25.16H69.6244V29.96H62.4644V39C62.4644 39.8 62.8244 40.2 63.5444 40.2H68.9044V45H60.5044C59.5977 45 58.851 44.7067 58.2644 44.12C57.7044 43.5333 57.4244 42.7867 57.4244 41.88V29.96H51.5444V25.16ZM81.0366 36.72C81.0632 37.3067 81.1966 37.8533 81.4366 38.36C81.7032 38.84 82.0499 39.2667 82.4766 39.64C82.9299 39.9867 83.4366 40.2667 83.9966 40.48C84.5832 40.6667 85.1966 40.76 85.8366 40.76C87.0899 40.76 88.0499 40.5467 88.7166 40.12C89.3832 39.6667 89.8632 39.1333 90.1566 38.52L94.4766 40.92C94.2366 41.4267 93.9032 41.96 93.4766 42.52C93.0499 43.0533 92.4899 43.5467 91.7966 44C91.1299 44.4533 90.3032 44.8267 89.3166 45.12C88.3566 45.4133 87.2232 45.56 85.9166 45.56C84.4232 45.56 83.0632 45.32 81.8366 44.84C80.6099 44.36 79.5432 43.6667 78.6366 42.76C77.7566 41.8533 77.0632 40.7467 76.5566 39.44C76.0766 38.1333 75.8366 36.6533 75.8366 35V34.76C75.8366 33.24 76.0899 31.8533 76.5966 30.6C77.1299 29.3467 77.8499 28.28 78.7566 27.4C79.6632 26.52 80.7166 25.84 81.9166 25.36C83.1432 24.8533 84.4499 24.6 85.8366 24.6C87.5432 24.6 89.0099 24.9067 90.2366 25.52C91.4632 26.1067 92.4766 26.8667 93.2766 27.8C94.0766 28.7067 94.6632 29.72 95.0366 30.84C95.4099 31.9333 95.5966 33 95.5966 34.04V36.72H81.0366ZM85.7966 29.16C84.5166 29.16 83.4766 29.4933 82.6766 30.16C81.8766 30.8 81.3566 31.5467 81.1166 32.4H90.4766C90.3166 31.4667 89.8099 30.6933 88.9566 30.08C88.1299 29.4667 87.0766 29.16 85.7966 29.16ZM100.129 25.16H108.529V28.04H109.249C109.622 26.9467 110.249 26.1067 111.129 25.52C112.035 24.9067 113.115 24.6 114.369 24.6C116.342 24.6 117.929 25.2267 119.129 26.48C120.329 27.7067 120.929 29.5867 120.929 32.12V33L115.729 33.48V32.92C115.729 31.8267 115.449 30.96 114.889 30.32C114.329 29.6533 113.489 29.32 112.369 29.32C111.249 29.32 110.369 29.7067 109.729 30.48C109.089 31.2533 108.769 32.36 108.769 33.8V40.2H113.329V45H99.6488V40.2H103.729V29.96H100.129V25.16ZM138.421 42.12C137.888 43.3733 137.141 44.2667 136.181 44.8C135.221 45.3067 134.101 45.56 132.821 45.56C131.621 45.56 130.488 45.3333 129.421 44.88C128.381 44.4267 127.461 43.76 126.661 42.88C125.861 42 125.221 40.9333 124.741 39.68C124.288 38.4267 124.061 37 124.061 35.4V34.76C124.061 33.1867 124.288 31.7733 124.741 30.52C125.194 29.2667 125.808 28.2 126.581 27.32C127.354 26.44 128.248 25.7733 129.261 25.32C130.301 24.84 131.408 24.6 132.581 24.6C133.994 24.6 135.128 24.84 135.981 25.32C136.861 25.8 137.554 26.5467 138.061 27.56H138.781V25.16H143.821V39C143.821 39.8 144.181 40.2 144.901 40.2H145.661V45H142.221C141.314 45 140.568 44.7333 139.981 44.2C139.421 43.6667 139.141 42.9733 139.141 42.12H138.421ZM133.941 40.76C135.408 40.76 136.581 40.28 137.461 39.32C138.341 38.3333 138.781 37 138.781 35.32V34.84C138.781 33.16 138.341 31.84 137.461 30.88C136.581 29.8933 135.408 29.4 133.941 29.4C132.474 29.4 131.301 29.8933 130.421 30.88C129.541 31.84 129.101 33.16 129.101 34.84V35.32C129.101 37 129.541 38.3333 130.421 39.32C131.301 40.28 132.474 40.76 133.941 40.76ZM169.433 37.72C168.98 40.0667 167.9 41.96 166.193 43.4C164.513 44.84 162.26 45.56 159.433 45.56C157.966 45.56 156.593 45.3333 155.313 44.88C154.06 44.4267 152.966 43.7733 152.033 42.92C151.1 42.0667 150.366 41.0133 149.833 39.76C149.3 38.5067 149.033 37.08 149.033 35.48V35C149.033 33.4 149.3 31.96 149.833 30.68C150.366 29.4 151.1 28.3067 152.033 27.4C152.993 26.4933 154.1 25.8 155.353 25.32C156.633 24.84 157.993 24.6 159.433 24.6C162.206 24.6 164.446 25.32 166.153 26.76C167.886 28.2 168.98 30.0933 169.433 32.44L164.473 33.72C164.313 32.5467 163.806 31.5333 162.953 30.68C162.1 29.8267 160.9 29.4 159.353 29.4C158.633 29.4 157.953 29.5333 157.313 29.8C156.673 30.0667 156.113 30.4533 155.633 30.96C155.153 31.44 154.766 32.04 154.473 32.76C154.206 33.4533 154.073 34.24 154.073 35.12V35.36C154.073 36.24 154.206 37.0267 154.473 37.72C154.766 38.3867 155.153 38.9467 155.633 39.4C156.113 39.8533 156.673 40.2 157.313 40.44C157.953 40.6533 158.633 40.76 159.353 40.76C160.9 40.76 162.073 40.3733 162.873 39.6C163.7 38.8267 164.233 37.7867 164.473 36.48L169.433 37.72ZM174.005 25.16H179.885V17H184.925V25.16H192.085V29.96H184.925V39C184.925 39.8 185.285 40.2 186.005 40.2H191.365V45H182.965C182.059 45 181.312 44.7067 180.725 44.12C180.165 43.5333 179.885 42.7867 179.885 41.88V29.96H174.005V25.16ZM199.418 40.2H206.138V29.96H199.898V25.16H211.178V40.2H216.938V45H199.418V40.2ZM212.418 19.28C212.418 19.8133 212.311 20.32 212.098 20.8C211.911 21.2533 211.644 21.6533 211.298 22C210.951 22.32 210.538 22.5867 210.058 22.8C209.604 22.9867 209.124 23.08 208.618 23.08C208.084 23.08 207.591 22.9867 207.138 22.8C206.684 22.5867 206.284 22.32 205.938 22C205.591 21.6533 205.311 21.2533 205.098 20.8C204.911 20.32 204.818 19.8133 204.818 19.28C204.818 18.7467 204.911 18.2533 205.098 17.8C205.311 17.32 205.591 16.92 205.938 16.6C206.284 16.2533 206.684 15.9867 207.138 15.8C207.591 15.5867 208.084 15.48 208.618 15.48C209.124 15.48 209.604 15.5867 210.058 15.8C210.538 15.9867 210.951 16.2533 211.298 16.6C211.644 16.92 211.911 17.32 212.098 17.8C212.311 18.2533 212.418 18.7467 212.418 19.28ZM222.15 25.16H227.59L232.27 42.6H232.99L237.67 25.16H243.11L237.43 45H227.83L222.15 25.16ZM252.482 36.72C252.509 37.3067 252.642 37.8533 252.882 38.36C253.149 38.84 253.495 39.2667 253.922 39.64C254.375 39.9867 254.882 40.2667 255.442 40.48C256.029 40.6667 256.642 40.76 257.282 40.76C258.535 40.76 259.495 40.5467 260.162 40.12C260.829 39.6667 261.309 39.1333 261.602 38.52L265.922 40.92C265.682 41.4267 265.349 41.96 264.922 42.52C264.495 43.0533 263.935 43.5467 263.242 44C262.575 44.4533 261.749 44.8267 260.762 45.12C259.802 45.4133 258.669 45.56 257.362 45.56C255.869 45.56 254.509 45.32 253.282 44.84C252.055 44.36 250.989 43.6667 250.082 42.76C249.202 41.8533 248.509 40.7467 248.002 39.44C247.522 38.1333 247.282 36.6533 247.282 35V34.76C247.282 33.24 247.535 31.8533 248.042 30.6C248.575 29.3467 249.295 28.28 250.202 27.4C251.109 26.52 252.162 25.84 253.362 25.36C254.589 24.8533 255.895 24.6 257.282 24.6C258.989 24.6 260.455 24.9067 261.682 25.52C262.909 26.1067 263.922 26.8667 264.722 27.8C265.522 28.7067 266.109 29.72 266.482 30.84C266.855 31.9333 267.042 33 267.042 34.04V36.72H252.482ZM257.242 29.16C255.962 29.16 254.922 29.4933 254.122 30.16C253.322 30.8 252.802 31.5467 252.562 32.4H261.922C261.762 31.4667 261.255 30.6933 260.402 30.08C259.575 29.4667 258.522 29.16 257.242 29.16Z" fill="black"/>
</svg>
