<svg width="790" height="164" viewBox="0 0 790 164" fill="none" xmlns="http://www.w3.org/2000/svg">
<rect x="233" y="110" width="54" height="232" transform="rotate(90 233 110)" fill="#FF0000"/>
<path d="M7.134 82.16H20.91V61.168H8.118V51.328H31.242V82.16H43.05V92H7.134V82.16ZM33.784 39.274C33.784 40.3673 33.5653 41.406 33.128 42.39C32.7453 43.3193 32.1987 44.1393 31.488 44.85C30.7773 45.506 29.93 46.0527 28.946 46.49C28.0167 46.8727 27.0327 47.064 25.994 47.064C24.9007 47.064 23.8893 46.8727 22.96 46.49C22.0307 46.0527 21.2107 45.506 20.5 44.85C19.7893 44.1393 19.2153 43.3193 18.778 42.39C18.3953 41.406 18.204 40.3673 18.204 39.274C18.204 38.1807 18.3953 37.1693 18.778 36.24C19.2153 35.256 19.7893 34.436 20.5 33.78C21.2107 33.0693 22.0307 32.5227 22.96 32.14C23.8893 31.7027 24.9007 31.484 25.994 31.484C27.0327 31.484 28.0167 31.7027 28.946 32.14C29.93 32.5227 30.7773 33.0693 31.488 33.78C32.1987 34.436 32.7453 35.256 33.128 36.24C33.5653 37.1693 33.784 38.1807 33.784 39.274ZM66.937 92H56.605V51.328H66.937V57.396H68.413C69.3423 55.1 70.8457 53.3233 72.923 52.066C75.0003 50.8087 77.433 50.18 80.221 50.18C82.189 50.18 84.0203 50.508 85.715 51.164C87.4643 51.7653 88.995 52.722 90.307 54.034C91.619 55.346 92.6303 57.0133 93.341 59.036C94.1063 61.0587 94.489 63.464 94.489 66.252V92H84.157V68.876C84.157 65.9787 83.4463 63.71 82.025 62.07C80.6583 60.3753 78.663 59.528 76.039 59.528C72.9777 59.528 70.6817 60.5667 69.151 62.644C67.675 64.6667 66.937 67.4 66.937 70.844V92ZM105.666 51.328H117.72V34.6H128.052V51.328H142.73V61.168H128.052V79.7C128.052 81.34 128.79 82.16 130.266 82.16H141.254V92H124.034C122.175 92 120.645 91.3987 119.442 90.196C118.294 88.9933 117.72 87.4627 117.72 85.604V61.168H105.666V51.328ZM166.125 75.026C166.18 76.2287 166.453 77.3493 166.945 78.388C167.492 79.372 168.202 80.2467 169.077 81.012C170.006 81.7227 171.045 82.2967 172.193 82.734C173.396 83.1167 174.653 83.308 175.965 83.308C178.534 83.308 180.502 82.8707 181.869 81.996C183.236 81.0667 184.22 79.9733 184.821 78.716L193.677 83.636C193.185 84.6747 192.502 85.768 191.627 86.916C190.752 88.0093 189.604 89.0207 188.183 89.95C186.816 90.8793 185.122 91.6447 183.099 92.246C181.131 92.8473 178.808 93.148 176.129 93.148C173.068 93.148 170.28 92.656 167.765 91.672C165.25 90.688 163.064 89.2667 161.205 87.408C159.401 85.5493 157.98 83.2807 156.941 80.602C155.957 77.9233 155.465 74.8893 155.465 71.5V71.008C155.465 67.892 155.984 65.0493 157.023 62.48C158.116 59.9107 159.592 57.724 161.451 55.92C163.31 54.116 165.469 52.722 167.929 51.738C170.444 50.6993 173.122 50.18 175.965 50.18C179.464 50.18 182.47 50.8087 184.985 52.066C187.5 53.2687 189.577 54.8267 191.217 56.74C192.857 58.5987 194.06 60.676 194.825 62.972C195.59 65.2133 195.973 67.4 195.973 69.532V75.026H166.125ZM175.883 59.528C173.259 59.528 171.127 60.2113 169.487 61.578C167.847 62.89 166.781 64.4207 166.289 66.17H185.477C185.149 64.2567 184.11 62.6713 182.361 61.414C180.666 60.1567 178.507 59.528 175.883 59.528ZM205.264 51.328H222.484V57.232H223.96C224.725 54.9907 226.01 53.2687 227.814 52.066C229.673 50.8087 231.887 50.18 234.456 50.18C238.501 50.18 241.754 51.4647 244.214 54.034C246.674 56.5487 247.904 60.4027 247.904 65.596V67.4L237.244 68.384V67.236C237.244 64.9947 236.67 63.218 235.522 61.906C234.374 60.5393 232.652 59.856 230.356 59.856C228.06 59.856 226.256 60.6487 224.944 62.234C223.632 63.8193 222.976 66.088 222.976 69.04V82.16H232.324V92H204.28V82.16H212.644V61.168H205.264V51.328ZM283.763 86.096C282.67 88.6653 281.139 90.4967 279.171 91.59C277.203 92.6287 274.907 93.148 272.283 93.148C269.823 93.148 267.5 92.6833 265.313 91.754C263.181 90.8247 261.295 89.458 259.655 87.654C258.015 85.85 256.703 83.6633 255.719 81.094C254.79 78.5247 254.325 75.6 254.325 72.32V71.008C254.325 67.7827 254.79 64.8853 255.719 62.316C256.648 59.7467 257.906 57.56 259.491 55.756C261.076 53.952 262.908 52.5853 264.985 51.656C267.117 50.672 269.386 50.18 271.791 50.18C274.688 50.18 277.012 50.672 278.761 51.656C280.565 52.64 281.986 54.1707 283.025 56.248H284.501V51.328H294.833V79.7C294.833 81.34 295.571 82.16 297.047 82.16H298.605V92H291.553C289.694 92 288.164 91.4533 286.961 90.36C285.813 89.2667 285.239 87.8453 285.239 86.096H283.763ZM274.579 83.308C277.586 83.308 279.991 82.324 281.795 80.356C283.599 78.3333 284.501 75.6 284.501 72.156V71.172C284.501 67.728 283.599 65.022 281.795 63.054C279.991 61.0313 277.586 60.02 274.579 60.02C271.572 60.02 269.167 61.0313 267.363 63.054C265.559 65.022 264.657 67.728 264.657 71.172V72.156C264.657 75.6 265.559 78.3333 267.363 80.356C269.167 82.324 271.572 83.308 274.579 83.308ZM347.338 77.076C346.409 81.8867 344.195 85.768 340.696 88.72C337.252 91.672 332.633 93.148 326.838 93.148C323.831 93.148 321.016 92.6833 318.392 91.754C315.823 90.8247 313.581 89.4853 311.668 87.736C309.755 85.9867 308.251 83.8273 307.158 81.258C306.065 78.6887 305.518 75.764 305.518 72.484V71.5C305.518 68.22 306.065 65.268 307.158 62.644C308.251 60.02 309.755 57.7787 311.668 55.92C313.636 54.0613 315.905 52.64 318.474 51.656C321.098 50.672 323.886 50.18 326.838 50.18C332.523 50.18 337.115 51.656 340.614 54.608C344.167 57.56 346.409 61.4413 347.338 66.252L337.17 68.876C336.842 66.4707 335.803 64.3933 334.054 62.644C332.305 60.8947 329.845 60.02 326.674 60.02C325.198 60.02 323.804 60.2933 322.492 60.84C321.18 61.3867 320.032 62.1793 319.048 63.218C318.064 64.202 317.271 65.432 316.67 66.908C316.123 68.3293 315.85 69.942 315.85 71.746V72.238C315.85 74.042 316.123 75.6547 316.67 77.076C317.271 78.4427 318.064 79.5907 319.048 80.52C320.032 81.4493 321.18 82.16 322.492 82.652C323.804 83.0893 325.198 83.308 326.674 83.308C329.845 83.308 332.25 82.5153 333.89 80.93C335.585 79.3447 336.678 77.2127 337.17 74.534L347.338 77.076ZM356.711 51.328H368.765V34.6H379.097V51.328H393.775V61.168H379.097V79.7C379.097 81.34 379.835 82.16 381.311 82.16H392.299V92H375.079C373.22 92 371.69 91.3987 370.487 90.196C369.339 88.9933 368.765 87.4627 368.765 85.604V61.168H356.711V51.328ZM408.806 82.16H422.582V61.168H409.79V51.328H432.914V82.16H444.722V92H408.806V82.16ZM435.456 39.274C435.456 40.3673 435.237 41.406 434.8 42.39C434.417 43.3193 433.871 44.1393 433.16 44.85C432.449 45.506 431.602 46.0527 430.618 46.49C429.689 46.8727 428.705 47.064 427.666 47.064C426.573 47.064 425.561 46.8727 424.632 46.49C423.703 46.0527 422.883 45.506 422.172 44.85C421.461 44.1393 420.887 43.3193 420.45 42.39C420.067 41.406 419.876 40.3673 419.876 39.274C419.876 38.1807 420.067 37.1693 420.45 36.24C420.887 35.256 421.461 34.436 422.172 33.78C422.883 33.0693 423.703 32.5227 424.632 32.14C425.561 31.7027 426.573 31.484 427.666 31.484C428.705 31.484 429.689 31.7027 430.618 32.14C431.602 32.5227 432.449 33.0693 433.16 33.78C433.871 34.436 434.417 35.256 434.8 36.24C435.237 37.1693 435.456 38.1807 435.456 39.274ZM455.407 51.328H466.559L476.153 87.08H477.629L487.223 51.328H498.375L486.731 92H467.051L455.407 51.328ZM517.588 75.026C517.643 76.2287 517.916 77.3493 518.408 78.388C518.955 79.372 519.665 80.2467 520.54 81.012C521.469 81.7227 522.508 82.2967 523.656 82.734C524.859 83.1167 526.116 83.308 527.428 83.308C529.997 83.308 531.965 82.8707 533.332 81.996C534.699 81.0667 535.683 79.9733 536.284 78.716L545.14 83.636C544.648 84.6747 543.965 85.768 543.09 86.916C542.215 88.0093 541.067 89.0207 539.646 89.95C538.279 90.8793 536.585 91.6447 534.562 92.246C532.594 92.8473 530.271 93.148 527.592 93.148C524.531 93.148 521.743 92.656 519.228 91.672C516.713 90.688 514.527 89.2667 512.668 87.408C510.864 85.5493 509.443 83.2807 508.404 80.602C507.42 77.9233 506.928 74.8893 506.928 71.5V71.008C506.928 67.892 507.447 65.0493 508.486 62.48C509.579 59.9107 511.055 57.724 512.914 55.92C514.773 54.116 516.932 52.722 519.392 51.738C521.907 50.6993 524.585 50.18 527.428 50.18C530.927 50.18 533.933 50.8087 536.448 52.066C538.963 53.2687 541.04 54.8267 542.68 56.74C544.32 58.5987 545.523 60.676 546.288 62.972C547.053 65.2133 547.436 67.4 547.436 69.532V75.026H517.588ZM527.346 59.528C524.722 59.528 522.59 60.2113 520.95 61.578C519.31 62.89 518.244 64.4207 517.752 66.17H536.94C536.612 64.2567 535.573 62.6713 533.824 61.414C532.129 60.1567 529.97 59.528 527.346 59.528Z" fill="black"/>
</svg>
